<svg id="Layer_1" data-name="Layer 1" xmlns="http://www.w3.org/2000/svg" viewBox="0 0 19.84 19.84"><defs><style>.cls-1{fill:#e5251f;}</style></defs><title>disembark_red</title><path class="cls-1" d="M16.13,11l-1.84,1.76.56.16a4.65,4.65,0,0,1-3.88,2V8.23h1.52a.7.7,0,1,0,0-1H11v-.8a2,2,0,1,0-1.27,0v.75H8a.7.7,0,1,0,0,1H9.69v6.65a4.65,4.65,0,0,1-4-2.22l.55-.12L4.53,10.66l-.76,2.42.65-.14a6.77,6.77,0,0,0,5.54,3.9l.38.77.38-.76a6.82,6.82,0,0,0,5.4-3.6l.63.18ZM9.23,4.59a1,1,0,1,1,1,1A1,1,0,0,1,9.23,4.59Z"/></svg>