<svg id="Layer_1" data-name="Layer 1" xmlns="http://www.w3.org/2000/svg" viewBox="0 0 22.68 22.68"><defs><style>.cls-1{fill:#e5251f;}</style></defs><title>rescue_red</title><path class="cls-1" d="M11.91,8a2.17,2.17,0,1,1,.64,3A2.17,2.17,0,0,1,11.91,8ZM3.1,17.25a1.45,1.45,0,0,1,2.4-.53c-.88.08-.93.9-.77,1.39A1.56,1.56,0,0,0,5.9,19h.28c.33-.07,1-.37,1.76-1.75a1.45,1.45,0,0,1,2.4-.53c-.88.08-.93.9-.77,1.39a1.56,1.56,0,0,0,1.17.89H11c.33-.07,1-.37,1.76-1.75a1.45,1.45,0,0,1,2.4-.53c-.88.08-.93.9-.76,1.39a1.55,1.55,0,0,0,1.17.89h.28c.33-.07,1-.37,1.76-1.75A1.45,1.45,0,0,1,20,16.72c-.88.08-.92.9-.76,1.39a1.55,1.55,0,0,0,1.16.89h1V16.38h-.66a1.53,1.53,0,0,1-1.15-.86c-.16-.48-.12-1.28.75-1.36a1.43,1.43,0,0,0-2.35.51,4.76,4.76,0,0,1-.73,1.07l-2.81-2.9L11,10.67,9.84,9.89h0L7.45,8.35l-1.16-4a.94.94,0,0,0-1.81.53L5.73,9.21a1,1,0,0,0,.39.53l2.69,1.74-3,4.62a1.12,1.12,0,0,1-.48-.58c-.16-.48-.12-1.28.75-1.36a1.43,1.43,0,0,0-2.35.51C3,16,2.33,16.32,2,16.38H1.34V19C1.67,18.94,2.39,18.64,3.1,17.25Z"/></svg>