<svg id="Layer_1" data-name="Layer 1" xmlns="http://www.w3.org/2000/svg" xmlns:xlink="http://www.w3.org/1999/xlink" viewBox="0 0 19.84 19.84"><defs><style>.cls-1,.cls-4{fill:none;}.cls-2{clip-path:url(#clip-path);}.cls-3{fill:#e5251f;}.cls-4{stroke:#e5251f;stroke-miterlimit:10;}</style><clipPath id="clip-path"><rect class="cls-1" x="-0.08" y="-0.04" width="19.88" height="19.88"/></clipPath></defs><title>trans_out_red</title><g class="cls-2"><path class="cls-3" d="M5.35,5.56,2.89,7.35v-2h.59V4.48h1V3.72c0-.2.69-.36,1.54-.36s1.54.16,1.54.36v.76h1v.88h.59v2L6.7,5.56A1.23,1.23,0,0,0,5.35,5.56ZM1.9,9.6a1.23,1.23,0,0,1,.42-1.28l.57-.42L5.35,6.12a1.11,1.11,0,0,1,.5-.18v6a.18.18,0,1,0,.35,0v-6a1.11,1.11,0,0,1,.5.18L9.15,7.9l.58.42a1.23,1.23,0,0,1,.42,1.28L8.73,13.2a1,1,0,0,1-.36.08c-.48,0-.79-.28-1-.9v0h0a.13.13,0,0,0-.1-.06.13.13,0,0,0-.1.06l0,0c-.25.62-.57.89-1.06.89H6c-.49,0-.81-.28-1.07-.9v0h0a.13.13,0,0,0-.1-.06.13.13,0,0,0-.1.06l0,0c-.25.6-.56.88-1,.89a1,1,0,0,1-.36-.08ZM6.75,8.19A.28.28,0,1,0,7,7.91.28.28,0,0,0,6.75,8.19Zm-2,0A.28.28,0,1,0,5,7.91.28.28,0,0,0,4.76,8.19ZM13.09,14h0v2.46H-1V14h0c.49,0,.81-.27,1.06-.89l0,0H0A.13.13,0,0,1,.14,13a.12.12,0,0,1,.1.06h0v0c.25.62.57.9,1.06.9h0c.49,0,.81-.27,1.06-.89l0,0h0a.12.12,0,0,1,.21,0h0v0c.25.61.56.88,1,.89s.78-.28,1-.89l0,0h0a.13.13,0,0,1,.1-.06.13.13,0,0,1,.1.06h0v0c.25.62.57.9,1.07.9H6c.49,0,.81-.27,1.06-.89l0,0h0A.13.13,0,0,1,7.2,13a.13.13,0,0,1,.1.06h0v0c.25.61.57.89,1,.9s.79-.28,1-.89l0,0h0a.12.12,0,0,1,.1-.06.12.12,0,0,1,.1.06h0v0c.25.62.57.9,1.06.9h0c.49,0,.81-.27,1.06-.89l0,0h0a.13.13,0,0,1,.1-.06A.12.12,0,0,1,12,13h0v0C12.28,13.7,12.6,14,13.09,14Z"/><path class="cls-3" d="M19.31,5.56,16.85,7.35v-2h.59V4.48h1V3.72c0-.2.69-.36,1.54-.36s1.54.16,1.54.36v.76h1v.88h.59v2L20.66,5.56A1.23,1.23,0,0,0,19.31,5.56Zm-3.45,4a1.23,1.23,0,0,1,.42-1.28l.57-.42,2.46-1.79a1.11,1.11,0,0,1,.5-.18v6a.18.18,0,1,0,.35,0v-6a1.11,1.11,0,0,1,.5.18L23.11,7.9l.58.42a1.23,1.23,0,0,1,.42,1.28l-1.42,3.6a1,1,0,0,1-.36.08c-.48,0-.79-.28-1-.9v0h0a.13.13,0,0,0-.1-.06.13.13,0,0,0-.1.06l0,0c-.25.62-.57.89-1.06.89h0c-.49,0-.81-.28-1.07-.9v0h0a.13.13,0,0,0-.1-.06.13.13,0,0,0-.1.06l0,0c-.25.6-.56.88-1,.89a1,1,0,0,1-.36-.08Zm4.85-1.42A.28.28,0,1,0,21,7.91.28.28,0,0,0,20.71,8.19Zm-2,0A.28.28,0,1,0,19,7.91.28.28,0,0,0,18.73,8.19ZM27.05,14h0v2.46H12.92V14h0c.49,0,.81-.27,1.06-.89l0,0h0a.13.13,0,0,1,.1-.06.12.12,0,0,1,.1.06h0v0c.25.62.57.9,1.06.9h0c.49,0,.81-.27,1.06-.89l0,0h0a.12.12,0,0,1,.21,0h0v0c.25.61.56.88,1,.89s.78-.28,1-.89l0,0h0a.13.13,0,0,1,.1-.06.13.13,0,0,1,.1.06h0v0c.25.62.57.9,1.07.9h0c.49,0,.81-.27,1.06-.89l0,0h0a.13.13,0,0,1,.1-.06.13.13,0,0,1,.1.06h0v0c.25.61.57.89,1,.9s.79-.28,1-.89l0,0h0a.12.12,0,0,1,.1-.06.12.12,0,0,1,.1.06h0v0c.25.62.57.9,1.06.9h0c.49,0,.81-.27,1.06-.89l0,0h0a.13.13,0,0,1,.1-.06A.12.12,0,0,1,26,13h0v0C26.24,13.7,26.56,14,27.05,14Z"/><line class="cls-3" x1="11.28" y1="9.88" x2="14.99" y2="9.91"/><line class="cls-4" x1="11.28" y1="9.88" x2="12.76" y2="9.89"/><polygon class="cls-3" points="12.3 11.44 14.99 9.91 12.32 8.35 12.3 11.44"/></g></svg>