<svg id="Layer_1" data-name="Layer 1" xmlns="http://www.w3.org/2000/svg" xmlns:xlink="http://www.w3.org/1999/xlink" viewBox="0 0 19.84 19.84"><defs><style>.cls-1,.cls-4{fill:none;}.cls-2{clip-path:url(#clip-path);}.cls-3{fill:#e5251f;}.cls-4{stroke:#e5251f;stroke-miterlimit:10;}</style><clipPath id="clip-path"><rect class="cls-1" y="1.04" width="19.85" height="19.85" transform="translate(19.85 21.92) rotate(-180)"/></clipPath></defs><title>trans_in_red</title><g class="cls-2"><path class="cls-3" d="M13.09,6.63,10.63,8.41v-2h.59V5.55h1V4.79c0-.2.69-.36,1.53-.36s1.53.16,1.53.36v.76h1v.88h.59v2L14.43,6.63A1.23,1.23,0,0,0,13.09,6.63Zm3.38,7.63a1,1,0,0,1-.36.08c-.47,0-.78-.28-1-.88l0,0a.13.13,0,0,0-.1-.06.13.13,0,0,0-.1.06h0v0c-.25.62-.57.9-1.06.9h0c-.49,0-.8-.27-1.06-.89l0,0a.13.13,0,0,0-.1-.06.13.13,0,0,0-.1.06h0v0c-.25.61-.56.89-1,.89a1,1,0,0,1-.36-.08L9.64,10.67a1.22,1.22,0,0,1,.42-1.28L10.63,9l2.45-1.78a1.1,1.1,0,0,1,.5-.18v6a.18.18,0,0,0,.35,0V7a1.1,1.1,0,0,1,.5.18L16.89,9l.57.42a1.22,1.22,0,0,1,.42,1.28ZM12.76,9a.28.28,0,1,0,.28.28A.28.28,0,0,0,12.76,9Zm2,0a.28.28,0,1,0,.28.28A.28.28,0,0,0,14.74,9Zm-7,5.16v0h0a.12.12,0,0,1,.1-.06.13.13,0,0,1,.1.06H8l0,0c.25.61.57.89,1.06.89h0c.49,0,.81-.28,1.06-.9v0h0a.12.12,0,0,1,.1-.06.12.12,0,0,1,.1.06h0l0,0c.25.6.57.88,1,.89s.79-.28,1-.89v0h0a.13.13,0,0,1,.1-.06.13.13,0,0,1,.1.06h0l0,0c.25.61.57.89,1.06.89h0c.49,0,.81-.28,1.06-.9v0h0A.13.13,0,0,1,15,14a.13.13,0,0,1,.1.06h0l0,0c.25.6.56.87,1,.88s.78-.29,1-.89v0h0a.12.12,0,0,1,.21,0h0l0,0c.25.61.58.89,1.06.89h0c.49,0,.81-.28,1.06-.9v0h0a.12.12,0,0,1,.1-.06.13.13,0,0,1,.1.06h0l0,0c.25.61.57.89,1.06.89h0v2.46H6.72V15h0C7.19,15,7.51,14.76,7.77,14.13Z"/><path class="cls-3" d="M-.85,6.63-3.3,8.41v-2h.59V5.55h1V4.79c0-.2.69-.36,1.53-.36s1.53.16,1.53.36v.76h1v.88H3v2L.5,6.63A1.23,1.23,0,0,0-.85,6.63Zm3.38,7.63a1,1,0,0,1-.36.08c-.47,0-.78-.28-1-.88l0,0a.13.13,0,0,0-.1-.06.13.13,0,0,0-.1.06h0v0c-.25.62-.57.9-1.06.9h0c-.49,0-.8-.27-1.06-.89l0,0a.13.13,0,0,0-.1-.06.13.13,0,0,0-.1.06h0v0c-.25.61-.56.89-1,.89a1,1,0,0,1-.36-.08l-1.41-3.59a1.22,1.22,0,0,1,.42-1.28L-3.3,9-.85,7.19A1.1,1.1,0,0,1-.35,7v6a.18.18,0,0,0,.18.18A.18.18,0,0,0,0,13V7a1.1,1.1,0,0,1,.5.18L3,9l.57.42a1.22,1.22,0,0,1,.42,1.28ZM-1.18,9a.28.28,0,0,0-.28.28.28.28,0,0,0,.28.28A.28.28,0,0,0-.9,9.26.28.28,0,0,0-1.18,9Zm2,0a.28.28,0,1,0,.28.28A.28.28,0,0,0,.8,9Zm-7,5.16v0h0A.12.12,0,0,1-6,14a.13.13,0,0,1,.1.06h0l0,0c.25.61.57.89,1.06.89h0c.49,0,.81-.28,1.06-.9v0h0a.12.12,0,0,1,.1-.06.12.12,0,0,1,.1.06h0l0,0c.25.6.57.88,1,.89s.79-.28,1-.89v0h0a.13.13,0,0,1,.1-.06.13.13,0,0,1,.1.06h0l0,0c.25.61.57.89,1.06.89h0c.49,0,.81-.28,1.06-.9v0h0A.13.13,0,0,1,1,14a.13.13,0,0,1,.1.06h0l0,0c.25.6.56.87,1,.88s.78-.29,1-.89v0h0a.12.12,0,0,1,.21,0h0l0,0c.25.61.58.89,1.06.89h0c.49,0,.81-.28,1.06-.9v0h0A.12.12,0,0,1,5.7,14a.13.13,0,0,1,.1.06h0l0,0c.25.61.57.89,1.06.89h0v2.46H-7.22V15h0C-6.74,15-6.42,14.76-6.17,14.13Z"/><line class="cls-3" x1="8.52" y1="10.95" x2="4.81" y2="10.97"/><line class="cls-4" x1="6.65" y1="10.96" x2="4.81" y2="10.97"/><polygon class="cls-3" points="6.26 9.67 8.52 10.95 6.28 12.26 6.26 9.67"/></g></svg>